<svg width="100" height="100" viewBox="0 0 100 100" fill="none" xmlns="http://www.w3.org/2000/svg">
<rect width="100" height="100" fill="url(#paint0_radial_226_32)"/>
<path fill-rule="evenodd" clip-rule="evenodd" d="M38.2207 10.403C39.7517 8.87212 42.2338 8.87218 43.7647 10.4031L55.4426 22.0816L66.6544 10.8698C68.1853 9.33888 70.6675 9.33888 72.1984 10.8698L83.8518 22.5232C84.587 23.2584 85 24.2555 85 25.2952C85 26.3349 84.587 27.332 83.8518 28.0672L72.64 39.279L83.8518 50.4908C84.587 51.226 85 52.2231 85 53.2628C85 54.3025 84.587 55.2997 83.8518 56.0349L72.1984 67.6882C70.6675 69.2192 68.1853 69.2192 66.6544 67.6882L55.4426 56.4764L21.3218 90.5972C19.7909 92.1281 17.3087 92.1281 15.7778 90.5972C14.2469 89.0662 14.2469 86.5841 15.7778 85.0532L52.6706 48.1604C54.2015 46.6295 56.6836 46.6295 58.2146 48.1604L69.4264 59.3722L75.5358 53.2628L64.324 42.051C63.5888 41.3159 63.1758 40.3187 63.1758 39.279C63.1758 38.2393 63.5888 37.2422 64.324 36.507L75.5358 25.2952L69.4264 19.1858L58.2146 30.3976C57.4794 31.1328 56.4823 31.5459 55.4425 31.5458C54.4028 31.5458 53.4057 31.1328 52.6705 30.3976L38.2206 15.947C36.6897 14.4161 36.6898 11.9339 38.2207 10.403ZM26.5673 22.0564C28.0983 20.5255 30.5805 20.5256 32.1114 22.0565L46.5613 36.5071C48.0921 38.038 48.0921 40.5201 46.5612 42.051L28.1148 60.4974C26.5839 62.0284 24.1017 62.0284 22.5708 60.4974C21.0399 58.9665 21.0399 56.4843 22.5708 54.9534L38.2452 39.279L26.5672 27.6004C25.0363 26.0695 25.0364 23.5873 26.5673 22.0564Z" fill="white"/>
<defs>
<radialGradient id="paint0_radial_226_32" cx="0" cy="0" r="1" gradientUnits="userSpaceOnUse" gradientTransform="translate(55.5155 6.03454) rotate(71.2118) scale(211.267 108.027)">
<stop stop-color="#D01212"/>
<stop offset="1" stop-color="#940E0D"/>
</radialGradient>
</defs>
</svg>
