<svg width="308" height="140" viewBox="0 0 308 140" fill="none" xmlns="http://www.w3.org/2000/svg">
<path fill-rule="evenodd" clip-rule="evenodd" d="M58.1422 10.7036C55.8709 8.4322 52.1883 8.43212 49.9169 10.7034C47.6455 12.9747 47.6454 16.6573 49.9167 18.9287L71.3551 40.368C72.4458 41.4588 73.9252 42.0716 75.4677 42.0716C77.0103 42.0716 78.4897 41.4589 79.5804 40.3681L96.2146 23.7339L105.279 32.798L88.6445 49.4322C87.5538 50.5229 86.941 52.0023 86.941 53.5448C86.941 55.0873 87.5538 56.5667 88.6445 57.6574L105.279 74.2916L96.2146 83.3557L79.5804 66.7215C77.3091 64.4502 73.6265 64.4502 71.3552 66.7215L16.6198 121.457C14.3485 123.728 14.3485 127.411 16.6198 129.682C18.8912 131.953 22.5738 131.953 24.8451 129.682L75.4678 79.0594L92.102 95.6936C94.3733 97.965 98.0559 97.965 100.327 95.6936L117.617 78.4043C118.707 77.3135 119.32 75.8342 119.32 74.2916C119.32 72.7491 118.707 71.2697 117.617 70.179L100.982 53.5448L117.617 36.9106C118.707 35.8199 119.32 34.3405 119.32 32.798C119.32 31.2554 118.707 29.7761 117.617 28.6853L100.327 11.396C98.0559 9.12462 94.3733 9.12462 92.102 11.396L75.4679 28.0301L58.1422 10.7036ZM40.8528 27.993C38.5815 25.7216 34.8989 25.7215 32.6275 27.9928C30.3561 30.2641 30.3561 33.9467 32.6274 36.2181L49.9532 53.5447L26.6981 76.7998C24.4268 79.0712 24.4268 82.7537 26.6981 85.0251C28.9695 87.2964 32.6521 87.2964 34.9234 85.0251L62.2911 57.6574C64.5624 55.3861 64.5624 51.7036 62.2912 49.4323L40.8528 27.993ZM281.347 56.0356V44.6327C281.347 43.5191 281.359 42.3991 281.372 41.2751L281.372 41.271C281.413 37.5961 281.455 33.8777 281.06 30.1929C281.003 29.0468 280.831 27.9581 280.659 26.9267C280.602 26.0672 280.258 25.3223 279.742 24.692C278.883 23.6606 277.794 23.1449 276.591 23.3168C274.929 23.4887 273.84 24.4628 273.267 26.0099C273.223 26.1865 273.171 26.3801 273.116 26.5808C273.029 26.9013 272.937 27.24 272.866 27.557C272.637 29.0469 272.408 30.594 272.236 32.1984C271.892 34.3758 271.663 36.496 271.663 38.6734C271.663 41.4963 271.649 44.3476 271.634 47.206V47.2093V47.2125V47.2158V47.219V47.2222V47.2254C271.62 50.1048 271.606 52.9914 271.606 55.8637V56.7805C271.606 57.4681 271.72 57.9838 272.007 58.6141C272.809 60.5624 274.585 61.6511 276.705 61.5365C278.826 61.4219 280.315 60.3331 281.06 58.213C281.29 57.5827 281.347 56.8378 281.347 56.0356ZM229.436 83.1571V88.802C229.436 89.1991 229.407 89.5678 229.294 89.8799C228.925 90.9294 228.188 91.4684 227.138 91.5251C226.089 91.5818 225.209 91.0429 224.812 90.0784C224.67 89.7664 224.614 89.5111 224.614 89.1707V88.7169C224.614 87.295 224.621 85.866 224.628 84.4406V84.4391V84.4376V84.4361V84.4346V84.4331V84.4316V84.4301V84.4285V84.4269V84.4253V84.4238V84.4223V84.4207C224.635 83.0091 224.642 81.6011 224.642 80.2071C224.642 79.1292 224.755 78.0796 224.926 77.0017C225.011 76.2075 225.124 75.4416 225.238 74.7041C225.272 74.5472 225.318 74.3797 225.361 74.2212L225.361 74.2208C225.388 74.1214 225.414 74.0256 225.436 73.9382C225.72 73.1723 226.259 72.6901 227.081 72.605C227.677 72.5199 228.216 72.7752 228.641 73.2858C228.897 73.5978 229.067 73.9665 229.095 74.392C229.18 74.9026 229.266 75.4416 229.294 76.0089C229.489 77.8329 229.469 79.6735 229.448 81.4926V81.493C229.442 82.0501 229.436 82.6052 229.436 83.1571ZM244.501 84.3204C244.444 83.1574 244.926 82.1646 245.55 81.2852C246.033 80.6044 246.657 79.9804 247.338 79.4982C248.387 78.789 249.493 78.4203 250.713 78.2217C251.082 78.165 251.422 78.1366 251.763 78.2217C251.99 78.2784 252.075 78.1933 252.131 77.938C252.33 77.0303 252.614 76.151 252.926 75.2716C253.096 74.7327 253.351 74.2505 253.663 73.7682C253.89 73.4846 254.117 73.286 254.429 73.1158C255.45 72.4918 256.585 73.1158 256.925 74.0803C257.095 74.6476 257.124 75.2433 257.067 75.839C256.925 76.8034 256.783 77.7962 256.755 78.789C256.755 79.2278 256.696 79.6312 256.639 80.022C256.608 80.2376 256.577 80.4494 256.556 80.6612C256.527 80.9835 256.483 81.2982 256.439 81.6094L256.439 81.6099L256.439 81.6102V81.6104C256.398 81.9012 256.357 82.1889 256.33 82.4766C256.275 82.8758 256.209 83.2634 256.146 83.632L256.146 83.6335L256.144 83.6449L256.108 83.8556L256.091 83.9606C256.075 84.0537 256.06 84.1453 256.046 84.2353C256.018 84.3487 256.018 84.4621 256.018 84.5472V84.5473C256.008 84.6869 255.999 84.8257 255.989 84.964L255.968 85.2542C255.895 86.2776 255.824 87.2704 255.847 88.2633C255.847 88.4902 255.847 88.7455 255.819 88.9724C255.705 89.7383 255.365 90.334 254.798 90.9297C254.06 91.6388 252.869 91.6388 252.075 90.958C251.649 90.5893 251.309 90.1638 251.11 89.6248C251.025 89.4546 250.997 89.4546 250.798 89.5397C250.787 89.5511 250.775 89.5625 250.764 89.5721C250.757 89.5777 250.751 89.5826 250.744 89.5866C250.74 89.5892 250.735 89.5915 250.731 89.5931C250.725 89.5953 250.719 89.5965 250.713 89.5965C249.777 90.1922 248.841 90.1354 247.876 89.7383C247.167 89.4546 246.6 89.0008 246.146 88.3767C245.409 87.5257 244.841 86.5613 244.614 85.455C244.586 85.2565 244.572 85.0721 244.558 84.8877L244.558 84.8871C244.543 84.7029 244.529 84.5187 244.501 84.3204ZM248.841 85.8238C248.852 85.9018 248.854 85.9798 248.857 86.0526C248.86 86.1652 248.863 86.2655 248.898 86.3344C249.21 87.1003 249.38 87.1003 249.919 86.618C249.936 86.5888 249.955 86.5631 249.974 86.5398C249.99 86.521 250.006 86.5038 250.021 86.4875L250.036 86.4725L250.056 86.4524L250.056 86.4522L250.056 86.452L250.057 86.4519L250.057 86.4517L250.057 86.4516L250.057 86.4515L250.057 86.4514C250.103 86.4053 250.146 86.3627 250.174 86.306C250.238 86.2166 250.3 86.1287 250.362 86.0419C250.574 85.7429 250.777 85.4571 250.997 85.1714C251.11 84.9728 251.167 84.7742 251.167 84.519C251.195 84.1786 251.224 83.8382 251.28 83.5261C251.337 83.0439 251.309 83.0156 250.883 83.1574C250.061 83.3843 249.55 83.8949 249.21 84.6324C249.195 84.7175 249.16 84.8026 249.125 84.8877C249.089 84.9728 249.054 85.0579 249.039 85.143C248.954 85.3699 248.869 85.6536 248.841 85.8238ZM263.614 85.1429V84.065H263.642C263.642 83.6112 263.642 83.1573 263.671 82.7602C263.671 81.7674 263.302 80.888 262.763 80.0938C262.167 79.1577 260.806 78.9875 259.983 79.9803C259.274 80.9164 258.82 81.966 258.82 83.1573V83.1576C258.82 83.7248 258.82 84.207 258.735 84.7458C258.667 85.4249 258.671 86.1039 258.676 86.8118V86.8133V86.8149C258.677 86.9931 258.678 87.1732 258.678 87.3555C258.65 87.9512 258.848 88.4334 259.245 88.8589C259.955 89.7099 260.806 89.8801 261.685 89.6248C262.706 89.3411 263.302 88.6036 263.472 87.5257C263.5 87.1404 263.52 86.7484 263.541 86.3595L263.541 86.3576L263.541 86.3555L263.541 86.3532L263.542 86.351C263.563 85.941 263.585 85.5346 263.614 85.1429ZM262.933 76.2927C263.047 75.5836 262.337 74.6475 261.373 74.6759C260.352 74.5624 259.756 75.4418 259.699 76.1793C259.671 77.1154 260.352 77.938 261.288 77.938C262.281 77.9096 262.848 77.3139 262.933 76.2927ZM280.611 94.9857C280.044 94.9857 279.534 94.929 278.938 94.7871C277.434 94.3616 276.413 93.3972 275.732 92.0073C275.506 91.4683 275.335 90.9294 275.194 90.362C275.052 89.7096 275.335 89.199 275.959 89.0288C276.328 88.9154 276.669 89.0288 276.895 89.2558C277.094 89.4543 277.264 89.6245 277.378 89.8798C278.314 91.7803 281.803 91.8938 281.321 89.0572C281.179 88.1778 280.526 87.5254 279.789 86.9297C278.909 86.249 278.03 85.4831 277.236 84.6321C276.612 83.9513 276.101 83.1571 275.789 82.2777C275.392 81.058 275.477 79.895 276.158 78.7603C276.392 78.3616 276.724 78.0599 277.072 77.7429C277.145 77.6765 277.219 77.6094 277.293 77.5406C277.775 77.1435 278.257 76.7747 278.853 76.5761C279.817 76.2074 280.81 76.0939 281.86 76.2641C282.654 76.3776 283.42 76.7464 284.015 77.3137C284.039 77.3409 284.063 77.3674 284.086 77.3932C284.254 77.5827 284.394 77.7415 284.469 77.9661C284.639 78.4199 284.441 79.1575 283.675 79.2709C283.561 79.2993 283.391 79.2709 283.221 79.1858C283.078 79.145 282.935 79.0894 282.781 79.0297C282.722 79.0065 282.661 78.9827 282.597 78.9589C281.094 78.4199 279.817 80.0368 280.753 81.3133C280.923 81.4693 281.087 81.6324 281.25 81.7955C281.413 81.9586 281.576 82.1217 281.746 82.2777C281.964 82.4789 282.202 82.6703 282.442 82.8634L282.443 82.8644L282.444 82.865L282.444 82.8652C282.61 82.9982 282.776 83.132 282.937 83.2705C284.412 84.4903 285.519 85.9086 285.973 87.8091C286.114 88.2346 286.2 88.7168 286.228 89.1707C286.398 90.7024 285.831 92.0073 284.98 93.1986C284.526 93.8511 283.902 94.2765 283.108 94.5318C282.285 94.8155 281.519 95.0141 280.611 94.9857ZM265.382 83.7533C265.269 81.6826 265.893 80.0657 267.198 78.6758C267.907 77.9099 268.701 77.3142 269.694 77.1157C270.715 76.8604 271.68 77.0022 272.559 77.6546C273.211 78.1652 273.552 78.8743 273.779 79.5835C273.892 80.0374 273.892 80.4628 273.807 80.8883C273.75 81.5124 273.637 82.1364 273.438 82.7321C273.041 83.7533 272.36 84.4057 271.283 84.7177C270.829 84.7745 270.403 84.7745 269.949 84.6894C269.467 84.5475 269.439 84.5759 269.439 85.1716C269.382 85.6538 269.382 86.136 269.581 86.6183C269.666 86.7885 269.722 86.9019 269.864 87.0721C269.893 87.214 270.006 87.2139 270.063 87.1288C270.29 86.9019 270.46 86.7034 270.63 86.4764C270.668 86.4329 270.706 86.3873 270.745 86.3411L270.745 86.3408C270.907 86.1467 271.076 85.944 271.283 85.8524C271.793 85.5404 272.587 85.8807 272.644 86.5048C272.729 86.7317 272.729 86.987 272.616 87.214C272.417 88.0082 272.048 88.6606 271.424 89.2279C270.46 90.0789 268.928 90.1073 267.935 89.3698C266.943 88.6606 266.29 87.6962 265.865 86.6466C265.496 85.6538 265.354 84.6326 265.382 83.7533ZM271.595 81.6826V81.2004C271.566 81.0018 271.453 80.86 271.254 80.7181C271.027 80.6614 270.857 80.7181 270.687 80.8883C270.233 81.3138 270.034 81.8528 269.893 82.4201C269.893 82.5336 269.949 82.6187 270.034 82.647C270.318 82.7321 270.602 82.7605 270.885 82.7321C271.169 82.647 271.396 82.4768 271.481 82.1932C271.51 81.9946 271.566 81.7677 271.595 81.6826ZM242.096 86.3344C242.38 85.5402 242.408 84.6608 242.408 83.6964C242.408 83.1291 242.408 82.4766 242.209 81.8242C241.992 81.1445 241.696 80.4648 241.422 79.8351L241.387 79.7535C240.99 79.0443 240.394 78.4487 239.628 78.1934L239.523 78.1482C239.165 77.9939 238.827 77.8479 238.465 77.7962C237.898 77.6544 237.331 77.5977 236.763 77.7679C236.232 77.8701 235.745 78.0606 235.248 78.2547C235.056 78.3299 234.862 78.4057 234.664 78.477C234.617 78.5239 234.562 78.5535 234.512 78.5802C234.471 78.602 234.434 78.6217 234.409 78.6472C233.7 79.0443 233.217 79.6968 232.82 80.3775C231.572 82.505 230.977 84.7459 231.203 87.157C231.317 87.9513 231.544 88.7172 232.083 89.3128C232.423 89.6816 232.764 90.022 233.132 90.334C234.04 91.0148 235.061 91.3552 236.224 91.3268C237.359 91.2985 238.408 90.9581 239.345 90.3907C239.798 90.1638 240.167 89.7951 240.451 89.3979C240.562 89.2202 240.679 89.0406 240.797 88.859C241.131 88.345 241.476 87.8155 241.727 87.2705C241.869 86.9585 241.983 86.6464 242.096 86.3344ZM240.227 83.9332C240.226 84.0075 240.224 84.0806 240.224 84.1502C240.224 85.0012 240.025 85.8238 239.685 86.5897C239.591 86.8333 239.473 87.0769 239.362 87.3042C239.305 87.4209 239.251 87.5334 239.203 87.6392C239.108 87.8094 238.988 87.9544 238.869 88.0994L238.868 88.1002L238.814 88.1656C238.795 88.1887 238.776 88.212 238.758 88.2355C238.735 88.2633 238.714 88.2914 238.692 88.32C237.898 89.2561 236.423 88.6037 236.224 87.7243C236.201 87.585 236.174 87.4436 236.146 87.3011L236.146 87.3008L236.146 87.3006C236.072 86.9214 235.997 86.5353 235.997 86.1642C235.997 85.37 236.338 83.9233 236.905 82.7887C238.238 80.0088 239.628 81.1718 240.195 83.2709C240.238 83.4635 240.233 83.7044 240.227 83.933V83.9332ZM216.531 78.6758C215.226 80.0657 214.602 81.6826 214.716 83.7533C214.687 84.6326 214.829 85.6538 215.198 86.6466C215.624 87.6962 216.276 88.6606 217.269 89.3698C218.262 90.1073 219.793 90.0789 220.758 89.2279C221.382 88.6606 221.751 88.0082 221.949 87.214C222.063 86.987 222.063 86.7317 221.978 86.5048C221.921 85.8807 221.127 85.5404 220.616 85.8524C220.41 85.944 220.241 86.1467 220.079 86.3408C220.04 86.387 220.002 86.4328 219.964 86.4764C219.793 86.7034 219.623 86.9019 219.396 87.1288C219.339 87.2139 219.226 87.214 219.198 87.0721C219.056 86.9019 218.999 86.7885 218.914 86.6183C218.715 86.136 218.715 85.6538 218.772 85.1716C218.772 84.5759 218.801 84.5475 219.283 84.6894C219.737 84.7745 220.162 84.7745 220.616 84.7177C221.694 84.4057 222.375 83.7533 222.772 82.7321C222.97 82.1364 223.084 81.5124 223.141 80.8883C223.226 80.4628 223.226 80.0374 223.112 79.5835C222.885 78.8743 222.545 78.1652 221.892 77.6546C221.013 77.0022 220.049 76.8604 219.027 77.1157C218.035 77.3142 217.24 77.9099 216.531 78.6758ZM220.928 81.2004V81.6826C220.9 81.7677 220.843 81.9946 220.815 82.1932C220.729 82.4768 220.502 82.647 220.219 82.7321C219.935 82.7605 219.652 82.7321 219.368 82.647C219.283 82.6187 219.226 82.5336 219.226 82.4201C219.368 81.8528 219.566 81.3138 220.02 80.8883C220.19 80.7181 220.361 80.6614 220.588 80.7181C220.786 80.86 220.9 81.0018 220.928 81.2004ZM192.563 82.4482C192.563 82.1618 192.565 81.8791 192.566 81.599C192.572 80.7695 192.577 79.9636 192.534 79.1577C192.506 78.3635 192.534 77.5976 192.591 76.8034L192.594 76.7704C192.65 76.1281 192.708 75.4592 192.903 74.8177C192.96 74.5341 193.073 74.2788 193.215 74.0235C193.527 73.5413 193.981 73.2576 194.577 73.2576C194.625 73.2576 194.67 73.2609 194.714 73.2641C194.799 73.2704 194.88 73.2763 194.974 73.2576C195.74 73.2009 196.279 73.5696 196.676 74.1653C196.934 74.541 197.154 74.9167 197.382 75.3086L197.478 75.4723L197.527 75.5553C198.69 77.4841 199.796 79.4698 200.874 81.4554C201.073 81.7958 201.264 82.1291 201.455 82.4624C201.647 82.7957 201.838 83.129 202.037 83.4694C202.065 83.5545 202.179 83.5545 202.207 83.4694C202.36 83.2177 202.509 82.9659 202.657 82.7159L202.658 82.7149C202.893 82.3171 203.126 81.9235 203.37 81.5405C204.59 79.5265 206.065 77.7111 207.767 76.0942C207.866 76.0235 207.951 75.9457 208.036 75.8679L208.036 75.8678L208.036 75.8677L208.036 75.8676L208.036 75.8676L208.036 75.8675L208.036 75.8674L208.036 75.8673C208.122 75.7893 208.207 75.7113 208.306 75.6404C208.561 75.4134 208.76 75.1298 208.93 74.8461C209.063 74.5808 209.213 74.3499 209.366 74.1132L209.366 74.113C209.41 74.0461 209.454 73.9787 209.497 73.91C209.667 73.598 209.979 73.3711 210.263 73.1725C211.341 72.4917 212.618 72.974 212.986 74.137C213.156 74.6192 213.27 75.1298 213.128 75.6687C213.071 75.8389 213.043 76.0091 213.043 76.2077C213.043 76.9736 212.873 77.6827 212.646 78.4202C212.192 79.8102 211.823 81.2568 211.54 82.7035C211.426 83.3275 211.313 83.98 211.313 84.6324C211.313 84.873 211.306 85.1206 211.299 85.3682L211.299 85.3699C211.291 85.6181 211.284 85.8663 211.284 86.1074C211.257 87.1059 211.392 88.0772 211.53 89.0745L211.53 89.0748L211.54 89.1426C211.681 90.2488 211.029 91.2984 209.979 91.7239C208.987 92.0926 207.682 91.7239 207.115 90.7311C206.973 90.5042 206.859 90.2205 206.774 89.9652C206.632 89.3695 206.547 88.7455 206.49 88.1214C206.405 87.2988 206.32 86.4762 206.349 85.6252C206.377 84.6607 206.462 83.7247 206.604 82.7602C206.717 81.9092 206.859 81.0866 207.086 80.2356C207.086 80.2303 207.085 80.2239 207.084 80.2168L207.082 80.2091L207.08 80.2042L207.076 80.1878C207.068 80.1603 207.058 80.1271 207.058 80.0938C207.001 80.1222 206.973 80.1506 206.944 80.1789L206.822 80.325C206.573 80.6236 206.309 80.9402 206.065 81.2568C205.271 82.3631 204.533 83.4694 203.909 84.6891C203.71 85.0369 203.555 85.4281 203.405 85.8057C203.384 85.8593 203.363 85.9127 203.342 85.9656C203.333 85.9834 203.325 86.002 203.317 86.0209C203.308 86.0421 203.3 86.0637 203.291 86.0854L203.291 86.0855C203.26 86.1674 203.228 86.2493 203.172 86.306C202.86 86.8449 202.519 86.9584 202.009 86.8449C201.299 86.7031 200.704 86.4194 200.193 85.8521C199.654 85.1997 199.2 84.5189 198.803 83.7814C198.672 83.5407 198.537 83.3001 198.4 83.0578L198.397 83.0517L198.396 83.0511L198.396 83.0505L198.396 83.0499L198.395 83.0493C198.179 82.6661 197.961 82.2788 197.754 81.8809L197.584 81.6256C197.569 81.6256 197.555 81.6185 197.541 81.6114C197.535 81.6085 197.529 81.6055 197.523 81.6031C197.515 81.5997 197.507 81.5972 197.498 81.5972C197.498 81.5972 197.47 81.6256 197.47 81.6539C197.442 81.7107 197.442 81.739 197.442 81.7958C197.442 82.0325 197.437 82.2668 197.432 82.4995V82.4997V82.4999V82.5V82.5002V82.5003V82.5005V82.5007V82.5008V82.501V82.5011V82.5013C197.421 83.0767 197.409 83.6418 197.47 84.2069C197.576 85.3062 197.572 86.3945 197.568 87.4786V87.4791V87.4796V87.4801V87.4806V87.4811V87.4816V87.4821V87.4827V87.4832V87.4837V87.4842C197.565 88.1325 197.562 88.7794 197.584 89.4262C197.612 89.9652 197.498 90.4758 197.272 90.958C196.988 91.6104 196.506 92.0926 195.796 92.3196C195.087 92.5465 194.435 92.4047 193.868 91.9508C193.187 91.4402 192.818 90.7027 192.761 89.8234C192.727 89.518 192.724 89.2024 192.72 88.8889V88.8887V88.8885V88.8882V88.888V88.8878V88.8876V88.8874V88.8872V88.887V88.8868V88.8866C192.718 88.6767 192.716 88.4677 192.705 88.2632L192.7 88.0978L192.7 88.0963L192.7 88.0948C192.645 86.1953 192.59 84.3217 192.563 82.4482ZM182.255 85.1429V84.065H182.284C182.284 83.6112 182.284 83.1573 182.312 82.7602C182.312 81.7674 181.943 80.888 181.404 80.0938C180.809 79.1577 179.447 78.9875 178.624 79.9803C177.915 80.9164 177.461 81.966 177.461 83.1573C177.461 83.7246 177.461 84.2069 177.376 84.7458C177.308 85.4249 177.313 86.1039 177.317 86.8118C177.318 86.991 177.32 87.1721 177.32 87.3555C177.291 87.9512 177.49 88.4334 177.887 88.8589C178.596 89.7099 179.447 89.8801 180.326 89.6248C181.348 89.3411 181.943 88.6036 182.113 87.5257C182.141 87.1404 182.162 86.7484 182.182 86.3595L182.183 86.3576L182.183 86.3555L182.183 86.3532L182.183 86.351C182.205 85.941 182.226 85.5346 182.255 85.1429ZM181.575 76.2927C181.688 75.5836 180.979 74.6475 180.014 74.6759C178.993 74.5624 178.398 75.4418 178.341 76.1793C178.312 77.1154 178.993 77.938 179.929 77.938C180.922 77.9096 181.489 77.3139 181.575 76.2927ZM175.45 86.8054L175.45 86.8056L175.45 86.8067C175.418 87.0846 175.385 87.3618 175.36 87.639C175.304 87.9333 175.275 88.2276 175.247 88.5185C175.219 88.8164 175.19 89.1107 175.133 89.3977C174.906 90.4189 174.367 91.128 173.374 91.4684C172.608 91.6953 171.927 91.5535 171.332 91.0997C170.679 90.5891 170.339 89.9367 170.367 89.114C170.367 88.5751 170.424 88.0645 170.509 87.5823L170.59 87.2176L170.635 87.0126C170.961 85.5397 171.279 84.1012 171.53 82.6182C171.644 82.136 171.757 81.5971 171.757 81.0581C171.729 80.6326 171.502 80.2639 170.991 80.2355C170.396 80.2071 169.857 80.3489 169.374 80.6326C168.807 81.0297 168.24 81.4836 167.871 82.0793C167.758 82.2495 167.658 82.4268 167.559 82.604C167.46 82.7813 167.36 82.9586 167.247 83.1288C166.992 83.5543 166.907 84.0082 166.935 84.5471C166.991 85.4096 167.023 86.2845 167.054 87.1554V87.156L167.054 87.1566L167.054 87.1574L167.054 87.1582L167.054 87.1591L167.054 87.1599L167.054 87.1607L167.054 87.1615L167.054 87.1624L167.054 87.1657L167.054 87.1688C167.07 87.611 167.086 88.0521 167.105 88.49C167.105 88.5218 167.105 88.5533 167.105 88.5846L167.106 88.6963C167.11 89.0956 167.113 89.4594 166.992 89.8232C166.623 90.7876 165.857 91.2982 164.949 91.3833C163.928 91.4968 163.191 91.0713 162.652 90.192C162.425 89.7948 162.34 89.3693 162.283 88.9722C162.208 88.199 162.182 87.4384 162.157 86.682C162.144 86.3006 162.132 85.9202 162.113 85.5399C162.113 85.1849 162.082 84.8399 162.052 84.493V84.4929V84.4928V84.4927V84.4926V84.4925V84.4923V84.4922V84.4921V84.492C162.031 84.2572 162.011 84.0215 161.999 83.7812V83.7245C161.98 83.3275 161.958 82.9337 161.936 82.5399V82.5398V82.5396V82.5394C161.892 81.7515 161.848 80.9635 161.829 80.1504C161.801 79.9802 161.801 79.8667 161.801 79.6965C161.857 78.5903 162.595 77.6258 163.645 77.3705C164.893 77.1152 166.056 77.8244 166.453 78.9306C166.595 79.271 166.651 79.6682 166.651 80.0653C166.651 80.0937 166.68 80.122 166.708 80.1504C166.736 80.1504 166.793 80.1504 166.822 80.122C167.304 79.6398 167.843 79.1859 168.41 78.9023C168.75 78.6754 169.119 78.4768 169.516 78.2782C171.076 77.5691 172.722 77.9946 173.828 79.271C174.197 79.6682 174.452 80.0653 174.651 80.5475C174.703 80.6779 174.756 80.807 174.808 80.9355C175.099 81.6453 175.381 82.3362 175.502 83.1288C175.502 83.1997 175.523 83.2705 175.544 83.3414L175.544 83.3416C175.565 83.4125 175.587 83.4834 175.587 83.5543C175.605 83.8367 175.599 84.1066 175.593 84.3806V84.3812V84.382V84.3829V84.3837V84.3845C175.59 84.5221 175.587 84.6607 175.587 84.8024C175.607 85.4808 175.528 86.1452 175.45 86.8054ZM160.26 85.1429V84.065H160.288C160.288 83.6112 160.288 83.1573 160.316 82.7602C160.316 81.7674 159.948 80.888 159.409 80.0938C158.813 79.1577 157.451 78.9875 156.629 79.9803C155.92 80.9164 155.466 81.966 155.466 83.1573C155.466 83.7246 155.466 84.2069 155.381 84.7458C155.313 85.4249 155.317 86.1039 155.322 86.8118L155.323 87.0745C155.324 87.1676 155.324 87.2612 155.324 87.3555C155.296 87.9512 155.494 88.4334 155.891 88.8589C156.6 89.7099 157.451 89.8801 158.331 89.6248C159.352 89.3411 159.948 88.6036 160.118 87.5257C160.145 87.1404 160.166 86.7484 160.187 86.3595L160.187 86.3576L160.187 86.3555L160.187 86.3532L160.187 86.351C160.209 85.941 160.231 85.5346 160.26 85.1429ZM159.579 76.2927C159.692 75.5836 158.983 74.6475 158.019 74.6759C156.998 74.5624 156.402 75.4418 156.345 76.1793C156.317 77.1154 156.998 77.938 157.934 77.938C158.926 77.9096 159.494 77.3139 159.579 76.2927ZM133.173 81.6016L133.173 81.599C133.178 80.7695 133.183 79.9636 133.141 79.1577C133.113 78.3635 133.141 77.5976 133.198 76.8034L133.201 76.7704C133.256 76.1281 133.314 75.4592 133.51 74.8177C133.566 74.5341 133.68 74.2788 133.822 74.0235C134.134 73.5413 134.588 73.2576 135.183 73.2576C135.232 73.2576 135.277 73.2609 135.32 73.2641L135.321 73.2641C135.406 73.2704 135.487 73.2763 135.58 73.2576C136.346 73.2009 136.885 73.5696 137.282 74.1653C137.541 74.541 137.76 74.9167 137.989 75.3086L138.057 75.4258L138.133 75.5553C139.296 77.4841 140.403 79.4698 141.481 81.4554C141.679 81.7958 141.871 82.1291 142.062 82.4624C142.253 82.7957 142.445 83.129 142.644 83.4694C142.672 83.5545 142.785 83.5545 142.814 83.4694C142.967 83.2177 143.116 82.966 143.264 82.716C143.5 82.3178 143.733 81.9238 143.977 81.5405C145.196 79.5265 146.672 77.7111 148.373 76.0942C148.473 76.0235 148.557 75.9456 148.642 75.8678L148.642 75.8677L148.643 75.8676L148.643 75.8676L148.643 75.8675L148.643 75.8674L148.643 75.8673C148.728 75.7893 148.813 75.7113 148.912 75.6404C149.168 75.4134 149.366 75.1298 149.536 74.8461C149.669 74.5808 149.819 74.3499 149.973 74.1132L149.973 74.113C150.016 74.0461 150.06 73.9787 150.104 73.91C150.274 73.598 150.586 73.3711 150.87 73.1725C151.948 72.4917 153.224 72.974 153.593 74.137C153.763 74.6192 153.876 75.1298 153.735 75.6687C153.678 75.8389 153.65 76.0091 153.65 76.2077C153.65 76.9736 153.479 77.6827 153.252 78.4202C152.799 79.8102 152.43 81.2568 152.146 82.7035C152.033 83.3275 151.919 83.98 151.919 84.6324C151.919 84.8735 151.912 85.1217 151.905 85.3699C151.898 85.6181 151.891 85.8663 151.891 86.1074C151.863 87.1059 151.998 88.0772 152.137 89.0745L152.137 89.0748L152.146 89.1426C152.288 90.2488 151.636 91.2984 150.586 91.7239C149.593 92.0926 148.288 91.7239 147.721 90.7311C147.579 90.5042 147.466 90.2205 147.381 89.9652C147.239 89.3695 147.154 88.7455 147.097 88.1214C147.012 87.2988 146.927 86.4762 146.955 85.6252C146.984 84.6607 147.069 83.7247 147.21 82.7602C147.324 81.9092 147.466 81.0866 147.693 80.2356C147.693 80.2239 147.688 80.2073 147.682 80.1878C147.674 80.1603 147.664 80.1271 147.664 80.0938C147.608 80.1222 147.579 80.1506 147.551 80.1789L147.429 80.3246L147.429 80.3253C147.179 80.6239 146.915 80.9404 146.672 81.2568C145.877 82.3631 145.14 83.4694 144.516 84.6891C144.317 85.0369 144.162 85.4281 144.012 85.8057C143.991 85.8593 143.97 85.9127 143.948 85.9656C143.929 86.0034 143.914 86.0444 143.898 86.0854L143.898 86.0855C143.866 86.1674 143.835 86.2493 143.778 86.306C143.466 86.8449 143.126 86.9584 142.615 86.8449C141.906 86.7031 141.31 86.4194 140.8 85.8521C140.261 85.1997 139.807 84.5189 139.41 83.7814C139.277 83.538 139.14 83.2945 139.002 83.0494L139.002 83.0492L139.001 83.048L139 83.0468L139 83.0455L138.999 83.0444C138.784 82.6628 138.567 82.2771 138.36 81.8809L138.19 81.6256C138.176 81.6256 138.162 81.6185 138.148 81.6114C138.141 81.6081 138.134 81.6048 138.128 81.6022C138.124 81.6007 138.12 81.5994 138.116 81.5985C138.112 81.5977 138.109 81.5972 138.105 81.5972C138.105 81.5972 138.077 81.6256 138.077 81.6539C138.048 81.7107 138.048 81.739 138.048 81.7958C138.048 82.0322 138.044 82.2664 138.039 82.4988L138.039 82.4995C138.027 83.0755 138.016 83.6412 138.077 84.2069C138.183 85.3062 138.179 86.3945 138.174 87.4786C138.171 88.1288 138.169 88.7775 138.19 89.4262C138.218 89.9652 138.105 90.4758 137.878 90.958C137.594 91.6104 137.112 92.0926 136.403 92.3196C135.694 92.5465 135.041 92.4047 134.474 91.9508C133.793 91.4402 133.425 90.7027 133.368 89.8234C133.334 89.5173 133.33 89.201 133.327 88.8868V88.8866C133.325 88.6767 133.322 88.4677 133.311 88.2632L133.306 88.0978C133.251 86.1973 133.197 84.3227 133.169 82.4482C133.169 82.1627 133.171 81.8808 133.173 81.6016ZM251.637 45.8365C251.408 41.6535 252.668 38.3873 255.304 35.5796C256.737 34.0325 258.341 32.8291 260.347 32.428C262.41 31.9123 264.358 32.1988 266.134 33.5168C267.452 34.5482 268.14 35.9807 268.598 37.4132C268.827 38.33 268.827 39.1895 268.655 40.0491C268.541 41.3097 268.312 42.5703 267.911 43.7736C267.108 45.8365 265.733 47.1544 263.556 47.7847C262.639 47.8993 261.779 47.8993 260.862 47.7274C259.888 47.4409 259.831 47.4982 259.831 48.7015C259.716 49.6756 259.716 50.6497 260.118 51.6238C260.289 51.9677 260.404 52.1969 260.691 52.5407C260.748 52.8272 260.977 52.8272 261.092 52.6553C261.55 52.1969 261.894 51.7958 262.238 51.3373C262.315 51.2494 262.392 51.1572 262.469 51.064L262.47 51.0633C262.797 50.6712 263.139 50.2618 263.556 50.0767C264.587 49.4464 266.191 50.134 266.306 51.3946C266.478 51.8531 266.478 52.3688 266.249 52.8272C265.848 54.4316 265.103 55.7495 263.842 56.8955C261.894 58.6146 258.8 58.6719 256.794 57.182C254.789 55.7495 253.471 53.8013 252.611 51.6811C251.866 49.6756 251.58 47.6128 251.637 45.8365ZM264.186 41.6535V40.6794C264.129 40.2783 263.899 39.9918 263.498 39.7053C263.04 39.5907 262.696 39.7053 262.352 40.0491C261.435 40.9086 261.034 41.9973 260.748 43.1433C260.748 43.3725 260.862 43.5444 261.034 43.6017C261.607 43.7736 262.18 43.8309 262.753 43.7736C263.326 43.6017 263.785 43.2579 263.957 42.6849C264.014 42.2838 264.129 41.8254 264.186 41.6535ZM230.868 57.2962C232.3 57.8119 233.79 57.9838 235.108 57.9265C236.426 57.9838 237.572 57.9265 238.718 57.5827C241.411 56.7232 243.703 55.2906 245.25 52.9413C246.568 50.7066 247.37 48.2999 247.599 45.7214C247.657 45.2057 247.657 44.69 247.599 44.2316C247.525 43.8798 247.463 43.5281 247.402 43.1783L247.402 43.1779L247.401 43.1772L247.401 43.1766L247.401 43.1759C247.272 42.4438 247.144 41.7201 246.912 41.0227C246.339 38.1004 244.734 35.6937 242.442 33.8601C238.603 30.8231 233.16 30.9377 229.378 33.3444C229.281 33.393 229.183 33.4623 229.082 33.5346L229.082 33.5347C228.944 33.6329 228.798 33.7368 228.633 33.8028C228.404 33.9747 228.289 33.9747 228.117 33.7455C227.994 33.54 227.841 33.364 227.659 33.1541L227.659 33.154C227.587 33.0712 227.511 32.9832 227.43 32.886C226.341 31.74 224.966 31.1096 223.247 31.5108C221.184 31.9119 220.152 33.3444 219.522 35.178C219.35 35.9802 219.178 36.8397 219.236 37.7566C219.35 39.1318 219.407 40.4497 219.465 41.8249C219.488 42.3516 219.492 42.8691 219.497 43.3848C219.504 44.1595 219.511 44.9301 219.579 45.7214C219.638 46.6898 219.727 47.6732 219.815 48.6486L219.815 48.6491L219.815 48.6496L219.815 48.65L219.815 48.6505C219.899 49.579 219.982 50.5002 220.038 51.3942C220.15 52.6719 220.214 53.9496 220.277 55.2112C220.309 55.8732 220.342 56.5308 220.382 57.1816L220.395 57.497C220.505 60.1382 220.613 62.7304 220.668 65.3756C220.783 66.0059 220.897 66.5789 221.069 67.1519C221.814 69.2148 223.934 70.7046 226.226 70.3608C228.747 69.9024 230.295 68.0114 230.409 65.834C230.481 64.7228 230.44 63.5444 230.4 62.3688C230.376 61.6651 230.352 60.9624 230.352 60.2758L230.34 60.1166L230.34 60.1163V60.1161C230.286 59.4168 230.229 58.6717 230.123 57.9265C230.123 57.2389 230.295 57.1816 230.868 57.2962ZM238.705 42.1347C239.021 42.9116 239.343 43.7022 239.291 44.6327C239.119 46.8674 238.374 48.8156 236.827 50.3628C236.139 51.165 235.165 51.5088 234.076 51.2796C233.503 51.165 232.816 50.9358 232.243 50.7066C231.613 50.4774 230.925 50.2482 230.295 50.0763C229.951 49.9044 229.894 49.7325 229.779 49.3886C229.607 48.4145 229.55 47.4404 229.55 46.4663C229.476 46.0491 229.466 45.6425 229.455 45.2373V45.2372C229.441 44.6963 229.427 44.1581 229.263 43.6013C229.225 43.5248 229.238 43.3975 229.25 43.2702C229.257 43.2065 229.263 43.1428 229.263 43.0855C229.206 41.3092 229.206 41.1946 230.696 40.2778C231.842 39.5329 233.045 39.0745 234.478 39.1318C236.426 39.2464 237.858 40.1059 238.603 41.8822C238.637 41.9663 238.671 42.0504 238.705 42.1347ZM204.214 68.5276C203.068 68.5276 202.036 68.413 200.833 68.1265C197.796 67.267 195.733 65.3188 194.358 62.511C193.9 61.4223 193.556 60.3336 193.269 59.1876C192.983 57.8697 193.556 56.8382 194.816 56.4944C195.561 56.2652 196.249 56.4944 196.707 56.9529C197.109 57.354 197.452 57.6978 197.682 58.2135C199.572 62.0526 206.62 62.2818 205.646 56.5518C205.36 54.7754 204.042 53.4575 202.552 52.2542C200.776 50.879 198.999 49.3318 197.395 47.6128C196.134 46.2376 195.103 44.6332 194.473 42.8568C193.67 40.3929 193.842 38.0435 195.218 35.7515C195.691 34.9461 196.361 34.3365 197.065 33.696C197.212 33.5619 197.361 33.4265 197.51 33.2876C198.484 32.4854 199.458 31.7404 200.661 31.3393C202.609 30.5944 204.615 30.3652 206.735 30.709C208.339 30.9382 209.887 31.6831 211.09 32.8292C211.138 32.8843 211.186 32.9377 211.232 32.99C211.571 33.3727 211.855 33.6934 212.007 34.1471C212.351 35.0639 211.949 36.5537 210.402 36.7829C210.173 36.8402 209.829 36.7829 209.486 36.611C209.197 36.5285 208.908 36.4162 208.598 36.2957C208.477 36.2488 208.353 36.2007 208.225 36.1526C205.188 35.0639 202.609 38.3301 204.5 40.9086C204.844 41.2237 205.174 41.5532 205.503 41.8826C205.833 42.2121 206.162 42.5416 206.506 42.8568C206.946 43.2633 207.427 43.6498 207.912 44.0399C208.247 44.3097 208.585 44.5812 208.912 44.8624C211.892 47.3263 214.127 50.1913 215.044 54.0305C215.33 54.89 215.502 55.8641 215.559 56.781C215.903 59.8752 214.757 62.511 213.038 64.9177C212.121 66.2356 210.861 67.0951 209.256 67.6108C207.595 68.1838 206.047 68.5849 204.214 68.5276ZM188.748 51.0503C189.321 49.4459 189.379 47.6696 189.379 45.7213C189.379 44.5753 189.379 43.2574 188.978 41.9395C188.538 40.5667 187.941 39.1938 187.388 37.9219L187.388 37.9216L187.316 37.7565C186.514 36.324 185.31 35.1207 183.763 34.605C183.692 34.5745 183.621 34.544 183.551 34.5137C182.828 34.202 182.145 33.9072 181.414 33.8027C180.268 33.5162 179.122 33.4016 177.976 33.7454C176.902 33.9519 175.918 34.3368 174.916 34.7288L174.915 34.7289C174.527 34.8809 174.136 35.0339 173.735 35.178C173.641 35.2726 173.529 35.3325 173.428 35.3864C173.346 35.4303 173.271 35.4703 173.22 35.5218C171.787 36.324 170.813 37.6419 170.011 39.0171C167.49 43.3147 166.286 47.8415 166.745 52.7121C166.974 54.3165 167.432 55.8636 168.521 57.0669C169.209 57.8118 169.896 58.4994 170.641 59.1298C172.475 60.505 174.538 61.1926 176.887 61.1353C179.179 61.078 181.299 60.3904 183.19 59.2444C184.107 58.7859 184.852 58.041 185.425 57.2388C185.649 56.8798 185.885 56.5169 186.124 56.1501C186.799 55.1118 187.495 54.0422 188.003 52.9413C188.29 52.3109 188.519 51.6806 188.748 51.0503ZM184.973 46.1997C184.97 46.3499 184.966 46.4975 184.966 46.6382C184.966 48.3572 184.565 50.0189 183.878 51.566C183.688 52.0581 183.449 52.5502 183.226 53.0093C183.111 53.2451 183.001 53.4722 182.904 53.6862C182.713 54.0299 182.471 54.3227 182.229 54.6156L182.229 54.6157C182.108 54.7621 181.987 54.9086 181.872 55.0614C180.268 56.9523 177.288 55.6344 176.887 53.8581C176.84 53.5764 176.785 53.2904 176.729 53.0025C176.58 52.2362 176.429 51.4562 176.429 50.7065C176.429 49.1021 177.116 46.1797 178.262 43.8877C180.955 38.2722 183.763 40.6216 184.909 44.8618C184.996 45.2509 184.984 45.7379 184.973 46.1997ZM134.007 47.8416C133.95 43.9451 134.81 40.2206 136.3 36.6679C136.93 35.0062 137.789 33.459 138.935 32.0265C139.852 30.7659 140.998 29.6199 142.202 28.6458C145.181 26.3537 148.505 24.692 152.229 23.8898C153.834 23.6033 155.438 23.546 157.042 23.7752C158.761 24.0617 160.194 24.9785 161.397 26.2391C163.059 27.9582 163.804 30.0783 163.575 32.5422C163.517 33.2298 163.288 33.8602 162.944 34.4905C162.314 35.4073 160.996 35.6938 160.022 35.1208C159.621 34.8916 159.22 34.6051 158.876 34.3186C158.074 33.8029 157.157 33.5163 156.183 33.459C154.292 33.3444 152.573 33.9175 150.911 34.777C147.989 36.2095 145.926 38.3869 144.952 41.5385C144.895 41.7677 144.823 41.9969 144.751 42.2262C144.68 42.4554 144.608 42.6845 144.551 42.9137C144.15 44.2316 143.921 45.5495 143.749 46.9248C143.519 49.1595 144.15 51.2796 145.181 53.2852C145.754 54.3739 146.384 55.4626 147.072 56.5513C147.359 57.0097 147.702 57.4681 148.161 57.8692C148.906 58.5569 149.823 58.6141 150.797 58.213C152.057 57.64 152.974 56.7232 153.776 55.6918C155.209 53.9728 155.954 51.9099 156.355 49.6752V49.0449C156.355 48.7584 156.183 48.5865 155.839 48.6438C155.524 48.6438 155.209 48.6581 154.894 48.6724C154.579 48.6868 154.263 48.7011 153.948 48.7011C153.089 48.7011 152.286 48.6438 151.484 48.3573C149.937 47.8416 148.505 46.1226 148.791 43.8878C149.02 42.1688 150.625 40.6217 152.458 40.4498C153.375 40.3581 154.292 40.4131 155.209 40.4681C155.438 40.4818 155.667 40.4956 155.896 40.5071C156.756 40.5071 157.558 40.6217 158.418 40.7936C159.506 41.0228 160.48 41.4239 161.283 42.2834C161.97 43.0283 162.371 43.8305 162.371 44.8046V45.3203C162.343 45.5955 162.316 45.8707 162.288 46.1458L162.287 46.1542C162.035 48.6835 161.782 51.2081 161.111 53.6863C160.251 56.7805 158.761 59.531 156.699 61.9376C155.782 63.0263 154.693 63.9431 153.49 64.688C150.739 66.3498 147.817 66.4644 144.837 65.433C141.285 64.115 138.649 61.7084 136.758 58.4995C135.268 55.9783 134.466 53.2279 134.007 50.3628C133.93 49.7854 133.957 49.208 133.983 48.6479C133.995 48.3743 134.007 48.1049 134.007 47.8416Z" fill="url(#paint0_radial_219_2)"/>
<defs>
<radialGradient id="paint0_radial_219_2" cx="0" cy="0" r="1" gradientUnits="userSpaceOnUse" gradientTransform="translate(22.8139 16.3854) rotate(23.5825) scale(287.451 212.152)">
<stop stop-color="#D01212"/>
<stop offset="1" stop-color="#940E0D"/>
</radialGradient>
</defs>
</svg>
