<svg width="308" height="140" viewBox="0 0 308 140" fill="none" xmlns="http://www.w3.org/2000/svg">
<path d="M280.611 94.9855C280.044 94.9855 279.534 94.9287 278.938 94.7869C277.434 94.3614 276.413 93.397 275.732 92.007C275.506 91.4681 275.335 90.9291 275.194 90.3618C275.052 89.7094 275.335 89.1988 275.959 89.0286C276.328 88.9151 276.669 89.0286 276.895 89.2555C277.094 89.4541 277.264 89.6243 277.378 89.8796C278.314 91.7801 281.803 91.8936 281.321 89.057C281.179 88.1776 280.526 87.5252 279.789 86.9295C278.909 86.2487 278.03 85.4828 277.236 84.6319C276.612 83.9511 276.101 83.1568 275.789 82.2775C275.392 81.0578 275.477 79.8947 276.158 78.7601C276.442 78.2779 276.867 77.9375 277.293 77.5404C277.775 77.1432 278.257 76.7745 278.853 76.5759C279.817 76.2072 280.81 76.0937 281.86 76.2639C282.654 76.3774 283.42 76.7461 284.015 77.3134C284.214 77.5404 284.384 77.7106 284.469 77.9659C284.639 78.4197 284.441 79.1572 283.675 79.2707C283.561 79.2991 283.391 79.2707 283.221 79.1856C283.023 79.1289 282.824 79.0438 282.597 78.9587C281.094 78.4197 279.817 80.0366 280.753 81.313C281.094 81.6251 281.406 81.9655 281.746 82.2775C282.115 82.6179 282.54 82.9299 282.937 83.2703C284.412 84.49 285.519 85.9083 285.973 87.8089C286.114 88.2344 286.2 88.7166 286.228 89.1704C286.398 90.7022 285.831 92.007 284.98 93.1984C284.526 93.8508 283.902 94.2763 283.108 94.5316C282.285 94.8153 281.519 95.0138 280.611 94.9855Z" fill="white"/>
<path d="M265.382 83.7533C265.269 81.6826 265.893 80.0657 267.198 78.6758C267.907 77.9099 268.701 77.3142 269.694 77.1157C270.715 76.8604 271.68 77.0022 272.559 77.6546C273.211 78.1652 273.552 78.8743 273.779 79.5835C273.892 80.0373 273.892 80.4628 273.807 80.8883C273.75 81.5124 273.637 82.1364 273.438 82.7321C273.041 83.7533 272.36 84.4057 271.283 84.7177C270.829 84.7745 270.403 84.7745 269.949 84.6894C269.467 84.5475 269.439 84.5759 269.439 85.1716C269.382 85.6538 269.382 86.136 269.581 86.6183C269.666 86.7885 269.722 86.9019 269.864 87.0721C269.893 87.2139 270.006 87.2139 270.063 87.1288C270.29 86.9019 270.46 86.7034 270.63 86.4764C270.829 86.2495 271.027 85.9658 271.283 85.8524C271.793 85.5404 272.587 85.8807 272.644 86.5048C272.729 86.7317 272.729 86.987 272.616 87.214C272.417 88.0082 272.048 88.6606 271.424 89.2279C270.46 90.0789 268.928 90.1073 267.935 89.3698C266.943 88.6606 266.29 87.6962 265.865 86.6466C265.496 85.6538 265.354 84.6326 265.382 83.7533ZM271.595 81.6826C271.595 81.4273 271.595 81.3138 271.595 81.2004C271.566 81.0018 271.453 80.86 271.254 80.7181C271.027 80.6614 270.857 80.7181 270.687 80.8883C270.233 81.3138 270.034 81.8528 269.893 82.4201C269.893 82.5336 269.949 82.6187 270.034 82.647C270.318 82.7321 270.602 82.7605 270.885 82.7321C271.169 82.647 271.396 82.4768 271.481 82.1932C271.509 81.9946 271.566 81.7677 271.595 81.6826Z" fill="white"/>
<path d="M263.614 84.0651C263.614 84.4055 263.614 84.7743 263.614 85.143C263.557 85.9089 263.529 86.7315 263.472 87.5258C263.302 88.6037 262.706 89.3412 261.685 89.6248C260.806 89.8801 259.955 89.7099 259.245 88.859C258.848 88.4335 258.65 87.9513 258.678 87.3556C258.678 86.4479 258.65 85.5969 258.735 84.7459C258.82 84.2069 258.82 83.7247 258.82 83.1574C258.82 81.966 259.274 80.9165 259.983 79.9804C260.806 78.9876 262.167 79.1578 262.763 80.0939C263.302 80.8881 263.671 81.7675 263.671 82.7603C263.642 83.1574 263.642 83.6113 263.642 84.0651H263.614ZM261.373 74.676C262.337 74.6476 263.047 75.5837 262.933 76.2928C262.848 77.314 262.281 77.9097 261.288 77.9381C260.352 77.9381 259.671 77.1154 259.699 76.1794C259.756 75.4418 260.352 74.5625 261.373 74.676Z" fill="white"/>
<path d="M244.501 84.3204C244.444 83.1574 244.926 82.1646 245.55 81.2852C246.033 80.6044 246.657 79.9804 247.338 79.4982C248.387 78.789 249.493 78.4203 250.713 78.2217C251.082 78.165 251.422 78.1366 251.763 78.2217C251.99 78.2784 252.075 78.1933 252.131 77.938C252.33 77.0303 252.614 76.151 252.926 75.2716C253.096 74.7327 253.351 74.2505 253.663 73.7682C253.89 73.4846 254.117 73.286 254.429 73.1158C255.45 72.4918 256.585 73.1158 256.925 74.0803C257.095 74.6476 257.124 75.2433 257.067 75.839C256.925 76.8034 256.783 77.7962 256.755 78.789C256.755 79.4698 256.613 80.0655 256.556 80.6612C256.5 81.2852 256.386 81.8809 256.33 82.4766C256.244 83.1007 256.131 83.6963 256.046 84.2353C256.018 84.3488 256.018 84.4622 256.018 84.5473C255.932 85.8238 255.819 87.0435 255.847 88.2633C255.847 88.4902 255.847 88.7455 255.819 88.9724C255.705 89.7383 255.365 90.334 254.798 90.9297C254.06 91.6388 252.869 91.6388 252.075 90.958C251.649 90.5893 251.309 90.1638 251.11 89.6248C251.025 89.4546 250.997 89.4546 250.798 89.5397C250.77 89.5681 250.741 89.5965 250.713 89.5965C249.777 90.1922 248.841 90.1354 247.876 89.7383C247.167 89.4546 246.6 89.0008 246.146 88.3767C245.409 87.5258 244.841 86.5613 244.614 85.455C244.558 85.0579 244.558 84.7175 244.501 84.3204ZM248.841 85.8238C248.869 86.0224 248.841 86.2209 248.898 86.3344C249.21 87.1003 249.38 87.1003 249.919 86.618C250.004 86.4762 250.117 86.4195 250.174 86.306C250.458 85.9089 250.713 85.5401 250.997 85.1714C251.11 84.9728 251.167 84.7742 251.167 84.519C251.195 84.1786 251.224 83.8382 251.28 83.5261C251.337 83.0439 251.309 83.0156 250.883 83.1574C250.061 83.3843 249.55 83.8949 249.21 84.6324C249.181 84.8026 249.068 84.9728 249.039 85.143C248.954 85.3699 248.869 85.6536 248.841 85.8238Z" fill="white"/>
<path d="M242.408 83.6965C242.408 84.661 242.38 85.5403 242.096 86.3346C241.983 86.6466 241.869 86.9586 241.727 87.2707C241.387 88.0082 240.876 88.7173 240.451 89.3981C240.167 89.7952 239.798 90.164 239.345 90.3909C238.408 90.9582 237.359 91.2986 236.224 91.327C235.061 91.3554 234.04 91.015 233.132 90.3342C232.764 90.0222 232.423 89.6818 232.083 89.313C231.544 88.7173 231.317 87.9514 231.203 87.1572C230.977 84.7461 231.572 82.5052 232.82 80.3777C233.217 79.6969 233.7 79.0445 234.409 78.6474C234.466 78.5907 234.579 78.5623 234.664 78.4772C235.373 78.2219 236.026 77.9099 236.763 77.768C237.331 77.5978 237.898 77.6546 238.465 77.7964C238.862 77.8531 239.231 78.0233 239.628 78.1935C240.394 78.4488 240.99 79.0445 241.387 79.7537C241.671 80.4061 241.983 81.1152 242.209 81.8244C242.408 82.4768 242.408 83.1292 242.408 83.6965ZM240.224 84.1504C240.224 83.8667 240.252 83.5263 240.196 83.2711C239.628 81.172 238.238 80.009 236.905 82.7888C236.338 83.9235 235.997 85.3701 235.997 86.1644C235.997 86.675 236.139 87.2139 236.224 87.7245C236.423 88.6039 237.898 89.2563 238.692 88.3202C238.862 88.0933 239.061 87.8947 239.203 87.6394C239.345 87.3274 239.543 86.9586 239.685 86.5899C240.025 85.824 240.224 85.0014 240.224 84.1504Z" fill="white"/>
<path d="M229.436 83.1571C229.436 85.0577 229.436 86.9298 229.436 88.802C229.436 89.1991 229.407 89.5679 229.294 89.8799C228.925 90.9294 228.188 91.4684 227.138 91.5251C226.089 91.5819 225.209 91.0429 224.812 90.0785C224.67 89.7664 224.613 89.5111 224.613 89.1707C224.613 89.0289 224.613 88.8304 224.613 88.7169C224.613 85.8803 224.642 83.0153 224.642 80.2071C224.642 79.1292 224.755 78.0796 224.926 77.0017C225.011 76.2075 225.124 75.4416 225.238 74.7041C225.294 74.4488 225.379 74.1651 225.436 73.9382C225.72 73.1723 226.259 72.6901 227.081 72.605C227.677 72.5199 228.216 72.7752 228.641 73.2858C228.897 73.5978 229.067 73.9666 229.095 74.3921C229.18 74.9026 229.266 75.4416 229.294 76.0089C229.549 78.3917 229.436 80.8028 229.436 83.1571Z" fill="white"/>
<path d="M214.716 83.7533C214.602 81.6826 215.226 80.0657 216.531 78.6758C217.24 77.9099 218.035 77.3142 219.027 77.1157C220.049 76.8604 221.013 77.0022 221.892 77.6546C222.545 78.1652 222.885 78.8743 223.112 79.5835C223.226 80.0373 223.226 80.4628 223.141 80.8883C223.084 81.5124 222.97 82.1364 222.772 82.7321C222.375 83.7533 221.694 84.4057 220.616 84.7177C220.162 84.7745 219.737 84.7745 219.283 84.6894C218.801 84.5475 218.772 84.5759 218.772 85.1716C218.715 85.6538 218.715 86.136 218.914 86.6183C218.999 86.7885 219.056 86.9019 219.198 87.0721C219.226 87.2139 219.339 87.2139 219.396 87.1288C219.623 86.9019 219.793 86.7034 219.964 86.4764C220.162 86.2495 220.361 85.9658 220.616 85.8524C221.127 85.5404 221.921 85.8807 221.978 86.5048C222.063 86.7317 222.063 86.987 221.949 87.214C221.751 88.0082 221.382 88.6606 220.758 89.2279C219.793 90.0789 218.262 90.1073 217.269 89.3698C216.276 88.6606 215.624 87.6962 215.198 86.6466C214.829 85.6538 214.687 84.6326 214.716 83.7533ZM220.928 81.6826C220.928 81.4273 220.928 81.3138 220.928 81.2004C220.9 81.0018 220.786 80.86 220.588 80.7181C220.361 80.6614 220.19 80.7181 220.02 80.8883C219.566 81.3138 219.368 81.8528 219.226 82.4201C219.226 82.5336 219.283 82.6187 219.368 82.647C219.651 82.7321 219.935 82.7605 220.219 82.7321C220.502 82.647 220.729 82.4768 220.815 82.1932C220.843 81.9946 220.9 81.7677 220.928 81.6826Z" fill="white"/>
<path d="M192.563 82.4483C192.563 81.3136 192.591 80.2357 192.534 79.1578C192.506 78.3636 192.534 77.5977 192.591 76.8034C192.648 76.151 192.705 75.4702 192.903 74.8178C192.96 74.5341 193.073 74.2789 193.215 74.0236C193.527 73.5413 193.981 73.2577 194.577 73.2577C194.719 73.2577 194.832 73.286 194.974 73.2577C195.74 73.2009 196.279 73.5697 196.676 74.1654C196.988 74.6192 197.243 75.0731 197.527 75.5553C198.69 77.4842 199.796 79.4698 200.874 81.4555C201.271 82.1362 201.64 82.7887 202.037 83.4694C202.065 83.5545 202.179 83.5545 202.207 83.4694C202.604 82.817 202.973 82.1646 203.37 81.5405C204.59 79.5266 206.065 77.7111 207.767 76.0943C207.965 75.9524 208.107 75.7823 208.306 75.6404C208.561 75.4135 208.76 75.1298 208.93 74.8462C209.1 74.5058 209.299 74.2221 209.497 73.9101C209.667 73.5981 209.979 73.3711 210.263 73.1726C211.341 72.4918 212.618 72.974 212.986 74.137C213.156 74.6192 213.27 75.1298 213.128 75.6688C213.071 75.839 213.043 76.0092 213.043 76.2077C213.043 76.9736 212.873 77.6828 212.646 78.4203C212.192 79.8102 211.823 81.2569 211.54 82.7036C211.426 83.3276 211.313 83.98 211.313 84.6324C211.313 85.1147 211.284 85.6253 211.284 86.1075C211.256 87.1287 211.398 88.1215 211.54 89.1426C211.681 90.2489 211.029 91.2985 209.979 91.7239C208.987 92.0927 207.682 91.7239 207.115 90.7311C206.973 90.5042 206.859 90.2205 206.774 89.9653C206.632 89.3696 206.547 88.7455 206.49 88.1215C206.405 87.2988 206.32 86.4762 206.349 85.6253C206.377 84.6608 206.462 83.7247 206.604 82.7603C206.717 81.9093 206.859 81.0867 207.086 80.2357C207.086 80.2073 207.058 80.1506 207.058 80.0939C207.001 80.1223 206.973 80.1506 206.944 80.179C206.661 80.5194 206.349 80.8881 206.065 81.2569C205.271 82.3632 204.533 83.4694 203.909 84.6892C203.682 85.0863 203.512 85.5402 203.342 85.9656C203.285 86.0791 203.257 86.2209 203.172 86.306C202.86 86.845 202.519 86.9585 202.009 86.845C201.299 86.7032 200.704 86.4195 200.193 85.8522C199.654 85.1998 199.2 84.519 198.803 83.7815C198.463 83.1574 198.094 82.5334 197.754 81.8809C197.697 81.7958 197.64 81.7107 197.584 81.6257C197.555 81.6257 197.527 81.5973 197.498 81.5973C197.498 81.5973 197.47 81.6256 197.47 81.654C197.442 81.7107 197.442 81.7391 197.442 81.7958C197.442 82.6185 197.385 83.4127 197.47 84.207C197.64 85.9656 197.527 87.696 197.584 89.4263C197.612 89.9653 197.498 90.4758 197.272 90.9581C196.988 91.6105 196.506 92.0927 195.796 92.3196C195.087 92.5466 194.435 92.4047 193.868 91.9509C193.187 91.4403 192.818 90.7028 192.761 89.8234C192.705 89.3128 192.733 88.7739 192.705 88.2633C192.648 86.306 192.591 84.3772 192.563 82.4483Z" fill="white"/>
<path d="M182.255 84.0651C182.255 84.4055 182.255 84.7743 182.255 85.143C182.199 85.9089 182.17 86.7315 182.113 87.5258C181.943 88.6037 181.348 89.3412 180.326 89.6248C179.447 89.8801 178.596 89.7099 177.887 88.859C177.49 88.4335 177.291 87.9513 177.32 87.3556C177.32 86.4479 177.291 85.5969 177.376 84.7459C177.461 84.2069 177.461 83.7247 177.461 83.1574C177.461 81.966 177.915 80.9165 178.624 79.9804C179.447 78.9876 180.809 79.1578 181.404 80.0939C181.943 80.8881 182.312 81.7675 182.312 82.7603C182.284 83.1574 182.284 83.6113 182.284 84.0651H182.255ZM180.014 74.676C180.979 74.6476 181.688 75.5837 181.575 76.2928C181.489 77.314 180.922 77.9097 179.929 77.9381C178.993 77.9381 178.312 77.1154 178.341 76.1794C178.398 75.4418 178.993 74.5625 180.014 74.676Z" fill="white"/>
<path d="M175.587 84.8023C175.615 85.7668 175.445 86.7029 175.36 87.6389C175.246 88.2346 175.246 88.8303 175.133 89.3976C174.906 90.4188 174.367 91.1279 173.374 91.4683C172.608 91.6953 171.927 91.5534 171.332 91.0996C170.679 90.589 170.339 89.9366 170.367 89.114C170.367 88.575 170.424 88.0644 170.509 87.5822C170.878 85.9086 171.247 84.2917 171.53 82.6182C171.644 82.1359 171.757 81.597 171.757 81.058C171.729 80.6325 171.502 80.2638 170.991 80.2354C170.396 80.207 169.857 80.3489 169.374 80.6325C168.807 81.0297 168.24 81.4835 167.871 82.0792C167.644 82.4196 167.474 82.7883 167.247 83.1287C166.992 83.5542 166.907 84.0081 166.935 84.547C167.02 85.8519 167.048 87.1851 167.105 88.4899C167.105 88.9721 167.134 89.3976 166.992 89.8231C166.623 90.7876 165.857 91.2982 164.949 91.3832C163.928 91.4967 163.191 91.0712 162.652 90.1919C162.425 89.7948 162.34 89.3693 162.283 88.9721C162.169 87.8091 162.169 86.6745 162.113 85.5399C162.113 84.9442 162.028 84.3768 161.999 83.7812C161.999 83.7528 161.999 83.7528 161.999 83.7244C161.943 82.5331 161.857 81.3701 161.829 80.1503C161.801 79.9801 161.801 79.8667 161.801 79.6965C161.857 78.5902 162.595 77.6257 163.645 77.3704C164.893 77.1151 166.056 77.8243 166.453 78.9306C166.595 79.271 166.651 79.6681 166.651 80.0652C166.651 80.0936 166.68 80.1219 166.708 80.1503C166.736 80.1503 166.793 80.1503 166.822 80.1219C167.304 79.6397 167.843 79.1859 168.41 78.9022C168.75 78.6753 169.119 78.4767 169.516 78.2782C171.076 77.569 172.722 77.9945 173.828 79.271C174.197 79.6681 174.452 80.0652 174.651 80.5474C174.991 81.3984 175.36 82.1927 175.502 83.1287C175.502 83.2706 175.587 83.4124 175.587 83.5542C175.615 83.9797 175.587 84.3768 175.587 84.8023Z" fill="white"/>
<path d="M160.26 84.0651C160.26 84.4055 160.26 84.7743 160.26 85.143C160.203 85.9089 160.175 86.7315 160.118 87.5258C159.948 88.6037 159.352 89.3412 158.331 89.6248C157.451 89.8801 156.6 89.7099 155.891 88.859C155.494 88.4335 155.296 87.9513 155.324 87.3556C155.324 86.4479 155.296 85.5969 155.381 84.7459C155.466 84.2069 155.466 83.7247 155.466 83.1574C155.466 81.966 155.92 80.9165 156.629 79.9804C157.451 78.9876 158.813 79.1578 159.409 80.0939C159.948 80.8881 160.316 81.7675 160.316 82.7603C160.288 83.1574 160.288 83.6113 160.288 84.0651H160.26ZM158.019 74.676C158.983 74.6476 159.692 75.5837 159.579 76.2928C159.494 77.314 158.926 77.9097 157.934 77.9381C156.998 77.9381 156.317 77.1154 156.345 76.1794C156.402 75.4418 156.998 74.5625 158.019 74.676Z" fill="white"/>
<path d="M133.169 82.4483C133.169 81.3136 133.198 80.2357 133.141 79.1578C133.113 78.3636 133.141 77.5977 133.198 76.8034C133.254 76.151 133.311 75.4702 133.51 74.8178C133.566 74.5341 133.68 74.2789 133.822 74.0236C134.134 73.5413 134.588 73.2577 135.183 73.2577C135.325 73.2577 135.439 73.286 135.58 73.2577C136.346 73.2009 136.885 73.5697 137.282 74.1654C137.594 74.6192 137.85 75.0731 138.133 75.5553C139.296 77.4842 140.403 79.4698 141.481 81.4555C141.878 82.1362 142.246 82.7887 142.644 83.4694C142.672 83.5545 142.785 83.5545 142.814 83.4694C143.211 82.817 143.58 82.1646 143.977 81.5405C145.196 79.5266 146.672 77.7111 148.373 76.0943C148.572 75.9524 148.714 75.7823 148.912 75.6404C149.168 75.4135 149.366 75.1298 149.536 74.8462C149.707 74.5058 149.905 74.2221 150.104 73.9101C150.274 73.5981 150.586 73.3711 150.87 73.1726C151.948 72.4918 153.224 72.974 153.593 74.137C153.763 74.6192 153.876 75.1298 153.735 75.6688C153.678 75.839 153.65 76.0092 153.65 76.2077C153.65 76.9736 153.479 77.6828 153.252 78.4203C152.799 79.8102 152.43 81.2569 152.146 82.7036C152.033 83.3276 151.919 83.98 151.919 84.6324C151.919 85.1147 151.891 85.6253 151.891 86.1075C151.862 87.1287 152.004 88.1215 152.146 89.1426C152.288 90.2489 151.636 91.2985 150.586 91.7239C149.593 92.0927 148.288 91.7239 147.721 90.7311C147.579 90.5042 147.466 90.2205 147.381 89.9653C147.239 89.3696 147.154 88.7455 147.097 88.1215C147.012 87.2988 146.927 86.4762 146.955 85.6253C146.984 84.6608 147.069 83.7247 147.21 82.7603C147.324 81.9093 147.466 81.0867 147.693 80.2357C147.693 80.2073 147.664 80.1506 147.664 80.0939C147.608 80.1223 147.579 80.1506 147.551 80.179C147.267 80.5194 146.955 80.8881 146.672 81.2569C145.877 82.3632 145.14 83.4694 144.516 84.6892C144.289 85.0863 144.119 85.5402 143.948 85.9656C143.892 86.0791 143.863 86.2209 143.778 86.306C143.466 86.845 143.126 86.9585 142.615 86.845C141.906 86.7032 141.31 86.4195 140.8 85.8522C140.261 85.1998 139.807 84.519 139.41 83.7815C139.069 83.1574 138.701 82.5334 138.36 81.8809C138.304 81.7958 138.247 81.7107 138.19 81.6257C138.162 81.6257 138.133 81.5973 138.105 81.5973C138.105 81.5973 138.077 81.6256 138.077 81.654C138.048 81.7107 138.048 81.7391 138.048 81.7958C138.048 82.6185 137.992 83.4127 138.077 84.207C138.247 85.9656 138.133 87.696 138.19 89.4263C138.218 89.9653 138.105 90.4758 137.878 90.9581C137.594 91.6105 137.112 92.0927 136.403 92.3196C135.694 92.5466 135.041 92.4047 134.474 91.9509C133.793 91.4403 133.425 90.7028 133.368 89.8234C133.311 89.3128 133.339 88.7739 133.311 88.2633C133.254 86.306 133.198 84.3772 133.169 82.4483Z" fill="white"/>
<path d="M281.347 44.6327C281.347 48.4719 281.347 52.2537 281.347 56.0356C281.347 56.8378 281.29 57.5827 281.06 58.213C280.315 60.3332 278.826 61.4219 276.705 61.5365C274.585 61.6511 272.809 60.5624 272.007 58.6141C271.72 57.9838 271.606 57.4681 271.606 56.7805C271.606 56.494 271.606 56.0929 271.606 55.8637C271.606 50.1336 271.663 44.3462 271.663 38.6734C271.663 36.496 271.892 34.3758 272.236 32.1984C272.408 30.594 272.637 29.0468 272.866 27.557C272.981 27.0413 273.153 26.4683 273.267 26.0099C273.84 24.4628 274.929 23.4887 276.591 23.3168C277.794 23.1449 278.883 23.6606 279.742 24.692C280.258 25.3223 280.602 26.0672 280.659 26.9267C280.831 27.9581 281.003 29.0468 281.06 30.1929C281.576 35.0061 281.347 39.8767 281.347 44.6327Z" fill="white"/>
<path d="M251.637 45.8365C251.408 41.6535 252.668 38.3873 255.304 35.5796C256.737 34.0325 258.341 32.8291 260.347 32.428C262.41 31.9123 264.358 32.1988 266.134 33.5168C267.452 34.5482 268.14 35.9807 268.598 37.4132C268.827 38.33 268.827 39.1895 268.655 40.0491C268.541 41.3097 268.312 42.5703 267.91 43.7736C267.108 45.8365 265.733 47.1544 263.556 47.7847C262.639 47.8993 261.779 47.8993 260.862 47.7274C259.888 47.4409 259.831 47.4982 259.831 48.7015C259.716 49.6756 259.716 50.6497 260.118 51.6238C260.289 51.9677 260.404 52.1969 260.691 52.5407C260.748 52.8272 260.977 52.8272 261.092 52.6553C261.55 52.1969 261.894 51.7958 262.238 51.3373C262.639 50.8789 263.04 50.3059 263.556 50.0767C264.587 49.4464 266.191 50.134 266.306 51.3946C266.478 51.8531 266.478 52.3688 266.249 52.8272C265.848 54.4316 265.103 55.7495 263.842 56.8955C261.894 58.6146 258.8 58.6719 256.794 57.182C254.789 55.7495 253.471 53.8013 252.611 51.6811C251.866 49.6756 251.58 47.6128 251.637 45.8365ZM264.186 41.6535C264.186 41.1378 264.186 40.9086 264.186 40.6794C264.129 40.2783 263.899 39.9918 263.498 39.7053C263.04 39.5907 262.696 39.7053 262.352 40.0491C261.435 40.9086 261.034 41.9973 260.748 43.1433C260.748 43.3725 260.862 43.5444 261.034 43.6017C261.607 43.7736 262.18 43.8309 262.753 43.7736C263.326 43.6017 263.785 43.2579 263.957 42.6849C264.014 42.2838 264.129 41.8254 264.186 41.6535Z" fill="white"/>
<path d="M235.108 57.9265C233.79 57.9838 232.3 57.8119 230.868 57.2962C230.295 57.1816 230.123 57.2389 230.123 57.9265C230.237 58.7287 230.295 59.5309 230.352 60.2758C230.352 62.1094 230.524 64.0577 230.409 65.834C230.295 68.0114 228.747 69.9024 226.226 70.3608C223.934 70.7046 221.814 69.2147 221.069 67.1519C220.897 66.5789 220.783 66.0059 220.668 65.3756C220.611 62.6251 220.496 59.932 220.382 57.1816C220.267 55.2906 220.21 53.3424 220.038 51.3942C219.923 49.5605 219.694 47.6123 219.579 45.7214C219.465 44.4034 219.522 43.1428 219.465 41.8249C219.407 40.4497 219.35 39.1318 219.236 37.7565C219.178 36.8397 219.35 35.9802 219.522 35.178C220.152 33.3444 221.184 31.9118 223.247 31.5107C224.966 31.1096 226.341 31.7399 227.43 32.886C227.716 33.2298 227.945 33.459 228.117 33.7455C228.289 33.9747 228.404 33.9747 228.633 33.8028C228.919 33.6882 229.149 33.459 229.378 33.3444C233.16 30.9377 238.603 30.8231 242.442 33.8601C244.734 35.6937 246.339 38.1003 246.912 41.0227C247.256 42.0541 247.37 43.1428 247.599 44.2315C247.657 44.69 247.657 45.2057 247.599 45.7214C247.37 48.2999 246.568 50.7065 245.25 52.9413C243.703 55.2906 241.411 56.7231 238.718 57.5827C237.572 57.9265 236.426 57.9838 235.108 57.9265ZM239.291 44.6326C239.348 43.6012 238.947 42.7417 238.603 41.8822C237.858 40.1059 236.426 39.2464 234.478 39.1318C233.045 39.0745 231.842 39.5329 230.696 40.2778C229.206 41.1946 229.206 41.3092 229.263 43.0855C229.263 43.2574 229.206 43.4866 229.263 43.6012C229.55 44.5753 229.378 45.4922 229.55 46.4663C229.55 47.4404 229.607 48.4145 229.779 49.3886C229.894 49.7324 229.951 49.9043 230.295 50.0762C230.925 50.2481 231.613 50.4773 232.243 50.7065C232.816 50.9357 233.503 51.165 234.076 51.2796C235.165 51.5088 236.139 51.165 236.827 50.3627C238.374 48.8156 239.119 46.8674 239.291 44.6326Z" fill="white"/>
<path d="M204.214 68.5276C203.068 68.5276 202.036 68.413 200.833 68.1265C197.796 67.267 195.733 65.3188 194.358 62.511C193.9 61.4223 193.556 60.3336 193.269 59.1876C192.983 57.8697 193.556 56.8382 194.816 56.4944C195.561 56.2652 196.249 56.4944 196.707 56.9529C197.109 57.354 197.452 57.6978 197.682 58.2135C199.572 62.0526 206.62 62.2818 205.646 56.5517C205.36 54.7754 204.042 53.4575 202.552 52.2542C200.776 50.879 198.999 49.3318 197.395 47.6128C196.134 46.2376 195.103 44.6332 194.473 42.8568C193.67 40.3929 193.842 38.0435 195.218 35.7515C195.791 34.7774 196.65 34.0898 197.51 33.2876C198.484 32.4854 199.458 31.7404 200.661 31.3393C202.609 30.5944 204.615 30.3652 206.735 30.709C208.339 30.9382 209.887 31.6831 211.09 32.8292C211.491 33.2876 211.835 33.6314 212.007 34.1471C212.351 35.0639 211.949 36.5537 210.402 36.7829C210.173 36.8402 209.829 36.7829 209.486 36.611C209.084 36.4964 208.683 36.3245 208.225 36.1526C205.188 35.0639 202.609 38.3301 204.5 40.9086C205.188 41.5389 205.818 42.2265 206.506 42.8568C207.251 43.5444 208.11 44.1747 208.912 44.8624C211.892 47.3263 214.127 50.1913 215.044 54.0305C215.33 54.89 215.502 55.8641 215.559 56.781C215.903 59.8752 214.757 62.511 213.038 64.9177C212.121 66.2356 210.861 67.0951 209.256 67.6108C207.595 68.1838 206.047 68.5849 204.214 68.5276Z" fill="white"/>
<path d="M189.379 45.7211C189.379 47.6694 189.321 49.4457 188.748 51.0501C188.519 51.6804 188.29 52.3107 188.003 52.941C187.316 54.4309 186.284 55.8634 185.425 57.2386C184.852 58.0408 184.107 58.7857 183.19 59.2441C181.299 60.3902 179.179 61.0778 176.887 61.1351C174.538 61.1924 172.475 60.5048 170.641 59.1295C169.896 58.4992 169.209 57.8116 168.521 57.0667C167.432 55.8634 166.974 54.3163 166.745 52.7118C166.286 47.8413 167.49 43.3145 170.011 39.0169C170.813 37.6417 171.787 36.3238 173.22 35.5216C173.334 35.407 173.564 35.3497 173.735 35.1778C175.168 34.662 176.486 34.0317 177.976 33.7452C179.122 33.4014 180.268 33.516 181.414 33.8025C182.216 33.9171 182.961 34.2609 183.763 34.6047C185.31 35.1205 186.514 36.3238 187.316 37.7563C187.889 39.0742 188.519 40.5067 188.978 41.9393C189.379 43.2572 189.379 44.5751 189.379 45.7211ZM184.966 46.6379C184.966 46.0649 185.024 45.3773 184.909 44.8616C183.763 40.6213 180.955 38.272 178.262 43.8875C177.116 46.1795 176.429 49.1019 176.429 50.7063C176.429 51.7377 176.715 52.8264 176.887 53.8579C177.288 55.6342 180.268 56.9521 181.872 55.0612C182.216 54.6028 182.617 54.2017 182.904 53.686C183.19 53.0556 183.591 52.3107 183.878 51.5658C184.565 50.0187 184.966 48.357 184.966 46.6379Z" fill="white"/>
<path d="M134.007 47.8416C133.95 43.9451 134.81 40.2206 136.3 36.6679C136.93 35.0062 137.789 33.4591 138.935 32.0266C139.852 30.7659 140.998 29.6199 142.202 28.6458C145.181 26.3538 148.505 24.692 152.229 23.8898C153.834 23.6033 155.438 23.546 157.042 23.7752C158.761 24.0617 160.194 24.9785 161.397 26.2392C163.059 27.9582 163.804 30.0783 163.575 32.5423C163.517 33.2299 163.288 33.8602 162.944 34.4905C162.314 35.4073 160.996 35.6938 160.022 35.1208C159.621 34.8916 159.22 34.6051 158.876 34.3186C158.074 33.8029 157.157 33.5164 156.183 33.4591C154.292 33.3445 152.573 33.9175 150.911 34.777C147.989 36.2095 145.926 38.387 144.952 41.5385C144.837 41.9969 144.665 42.4553 144.551 42.9137C144.15 44.2316 143.921 45.5496 143.749 46.9248C143.519 49.1595 144.15 51.2797 145.181 53.2852C145.754 54.3739 146.384 55.4626 147.072 56.5513C147.359 57.0098 147.702 57.4682 148.161 57.8693C148.906 58.5569 149.823 58.6142 150.797 58.2131C152.057 57.6401 152.974 56.7232 153.776 55.6918C155.209 53.9728 155.954 51.91 156.355 49.6752C156.355 49.5033 156.355 49.2741 156.355 49.0449C156.355 48.7584 156.183 48.5865 155.839 48.6438C155.209 48.6438 154.579 48.7011 153.948 48.7011C153.089 48.7011 152.286 48.6438 151.484 48.3573C149.937 47.8416 148.505 46.1226 148.791 43.8878C149.02 42.1688 150.625 40.6217 152.458 40.4498C153.604 40.3352 154.75 40.4498 155.896 40.5071C156.756 40.5071 157.558 40.6217 158.418 40.7936C159.506 41.0228 160.481 41.4239 161.283 42.2834C161.97 43.0283 162.371 43.8305 162.371 44.8047C162.371 44.9766 162.371 45.1485 162.371 45.3204C162.085 48.1281 161.856 50.9359 161.111 53.6863C160.251 56.7805 158.761 59.531 156.699 61.9376C155.782 63.0263 154.693 63.9432 153.49 64.6881C150.739 66.3498 147.817 66.4644 144.837 65.433C141.285 64.1151 138.649 61.7084 136.758 58.4996C135.268 55.9783 134.466 53.2279 134.007 50.3628C133.893 49.5033 134.007 48.6438 134.007 47.8416Z" fill="white"/>
<path fill-rule="evenodd" clip-rule="evenodd" d="M49.9169 10.7034C52.1883 8.43212 55.8709 8.4322 58.1422 10.7036L75.4679 28.0301L92.102 11.396C94.3733 9.12462 98.0559 9.12462 100.327 11.396L117.617 28.6853C118.707 29.7761 119.32 31.2554 119.32 32.798C119.32 34.3405 118.707 35.8199 117.617 36.9106L100.982 53.5448L117.617 70.179C118.707 71.2697 119.32 72.7491 119.32 74.2916C119.32 75.8342 118.707 77.3135 117.617 78.4043L100.327 95.6936C98.0559 97.965 94.3733 97.965 92.102 95.6936L75.4678 79.0594L24.8451 129.682C22.5738 131.953 18.8912 131.953 16.6198 129.682C14.3485 127.411 14.3485 123.728 16.6198 121.457L71.3552 66.7215C73.6265 64.4502 77.3091 64.4502 79.5804 66.7215L96.2146 83.3557L105.279 74.2916L88.6445 57.6574C87.5538 56.5667 86.941 55.0873 86.941 53.5448C86.941 52.0023 87.5538 50.5229 88.6445 49.4322L105.279 32.798L96.2146 23.7339L79.5804 40.3681C78.4897 41.4589 77.0103 42.0716 75.4677 42.0716C73.9252 42.0716 72.4458 41.4588 71.3551 40.368L49.9167 18.9287C47.6454 16.6573 47.6455 12.9747 49.9169 10.7034ZM32.6275 27.9928C34.8989 25.7215 38.5815 25.7216 40.8528 27.993L62.2912 49.4323C64.5624 51.7036 64.5624 55.3861 62.2911 57.6574L34.9234 85.0251C32.6521 87.2964 28.9695 87.2964 26.6981 85.0251C24.4268 82.7537 24.4268 79.0712 26.6981 76.7998L49.9532 53.5447L32.6274 36.2181C30.3561 33.9467 30.3561 30.2641 32.6275 27.9928Z" fill="white"/>
</svg>
